# xmcd
#
# Track frame offsets: 
#        150
#        14794
#        35017
#        51399
#        72120
#        85572
#        102677
#        122300
#        154993
#        177809
#        204649
#        217753
#
# Disc length: 3163 seconds
#
# Revision: 1
# Processed by: cddbd v1.5.2PL0 Copyright (c) Steve Scherf et al.
# Submitted via: ExactAudioCopy v1.0b3
#
DISCID=a40c590c
DTITLE=Rob Blaine - Rob Blaine's Big Otis Blues
DYEAR=2010
DGENRE=Blues
TTITLE0=Not The Forgiving Kind
TTITLE1=Only Mine
TTITLE2=Affection And Pain
TTITLE3=Same Old Blues
TTITLE4=Hourglass Baby
TTITLE5=Gone, Not Forgot
TTITLE6=Trouble
TTITLE7=Can't Help But Wonder
TTITLE8=Must Be Nice
TTITLE9=Find A Way
TTITLE10=Don't Burn Down The Bridge
TTITLE11=Must Be Nice (Acoustic)
EXTD=
EXTT0=
EXTT1=
EXTT2=
EXTT3=
EXTT4=
EXTT5=
EXTT6=
EXTT7=
EXTT8=
EXTT9=
EXTT10=
EXTT11=
PLAYORDER=
